# xmcd
#
# Track frame offsets:
#	150
#	12218
#	24811
#	38324
#	53082
#	80120
#	95933
#	110505
#	124526
#	143487
#	156072
#	168902
#	181546
#	199428
#	222923
#
# Disc length: 3311 seconds
#
# Revision: 0
# Processed by: cddbd v1.4PL0 Copyright (c) Steve Scherf et al.
# Submitted via: audiograbber 1.80
#
DISCID=b80ced0f
DTITLE=Various Artist - Greatest Hits Of Soul And R&B Disk 3
DYEAR=1900
DGENRE=
TTITLE0=Dyke And The Blazers - Funky Broadway
TTITLE1=Maceo and The All Kings Men - Got To Getcha
TTITLE2=The Meters - Cissy Strut
TTITLE3=Sly and The Family Stone - Remember Who You Are
TTITLE4=Willie 'Beaver' Hale - Groove On
TTITLE5=Timmy Thomas - Why Can't We Live Together
TTITLE6=George McGrae - Rock Your Baby
TTITLE7=Jesse Green - Nice And Slow
TTITLE8=Fern Kinney - Together We Are Beautiful
TTITLE9=New York City - I'm Doin' Fine Now
TTITLE10=Jim Gilstrap - Swing Your Daddy
TTITLE11=Dee Clark - Ride A Wild Horse
TTITLE12=Average White Band - Walk On By
TTITLE13=Delegation - Where Is The Love
TTITLE14=Rokotto - Boogie On Top
EXTD=
EXTT0=
EXTT1=
EXTT2=
EXTT3=
EXTT4=
EXTT5=
EXTT6=
EXTT7=
EXTT8=
EXTT9=
EXTT10=
EXTT11=
EXTT12=
EXTT13=
EXTT14=
PLAYORDER=
